<svg width="531" height="242" viewBox="0 0 531 242" fill="none" xmlns="http://www.w3.org/2000/svg">
<g clip-path="url(#clip0_123_72)">
<ellipse cx="288.557" cy="133.5" rx="36.5" ry="66.5" transform="rotate(1.59964 288.557 133.5)" fill="#52AC3E"/>
<ellipse cx="62.057" cy="196.303" rx="61.809" ry="45.595" transform="rotate(1.59964 62.057 196.303)" fill="#52AC3E"/>
<ellipse cx="117.468" cy="176.548" rx="36.5" ry="66.5" transform="rotate(-33.9422 117.468 176.548)" fill="#52AC3E"/>
<ellipse cx="194.848" cy="110.078" rx="86.8465" ry="110.167" transform="rotate(-11.3262 194.848 110.078)" fill="#52AC3E"/>
<ellipse cx="466.582" cy="183.112" rx="54.5182" ry="66.5" transform="rotate(56.6215 466.582 183.112)" fill="#52AC3E"/>
<path d="M428.444 158.778C415.105 192.997 389.465 214.958 371.174 207.828C352.884 200.698 348.869 167.178 362.208 132.959C375.546 98.7401 401.187 76.7797 419.477 83.9093C437.768 91.039 441.783 124.559 428.444 158.778Z" fill="#52AC3E"/>
<ellipse cx="354.928" cy="120.813" rx="36.5" ry="66.5" transform="rotate(15.4246 354.928 120.813)" fill="#52AC3E"/>
<rect x="36.0566" y="162" width="438" height="80" rx="20" fill="#52AC3E"/>
</g>
<g clip-path="url(#clip1_123_72)">
<ellipse cx="22.9652" cy="42.9523" rx="22.9652" ry="42.9523" transform="matrix(0.999589 0.0286576 -0.0271925 0.99963 284.449 134.011)" fill="#3D9C40"/>
<ellipse cx="38.8893" cy="29.4498" rx="38.8893" ry="29.4498" transform="matrix(0.999589 0.0286576 -0.0271925 0.99963 125.658 187.617)" fill="#3D9C40"/>
<ellipse cx="23.157" cy="42.6092" rx="23.157" ry="42.6092" transform="matrix(0.822715 -0.568455 0.548275 0.836298 156.182 182.94)" fill="#3D9C40"/>
<ellipse cx="54.6981" cy="71.0883" rx="54.6981" ry="71.0883" transform="matrix(0.979507 -0.201411 0.191493 0.981494 180.088 103.721)" fill="#3D9C40"/>
<ellipse cx="34.9402" cy="42.18" rx="34.9402" ry="42.18" transform="matrix(0.540107 0.841596 -0.828322 0.560253 434.312 156.613)" fill="#3D9C40"/>
<path d="M394.252 193.933C385.86 216.036 369.727 230.22 358.219 225.615C346.712 221.01 344.186 199.359 352.578 177.257C360.97 155.154 377.102 140.97 388.61 145.575C400.118 150.18 402.644 171.831 394.252 193.933Z" fill="#3D9C40"/>
<ellipse cx="23.0085" cy="42.8754" rx="23.0085" ry="42.8754" transform="matrix(0.962148 0.272527 -0.259546 0.965731 336.988 121.733)" fill="#3D9C40"/>
<rect x="147.371" y="196.014" width="275.577" height="51.673" rx="20" fill="#3D9C40"/>
<ellipse cx="129.316" cy="219.366" rx="15.5" ry="28" transform="rotate(-37.1288 129.316 219.366)" fill="#3D9C40"/>
<ellipse cx="99.8695" cy="216.912" rx="16.0714" ry="28" transform="rotate(-33.3301 99.8695 216.912)" fill="#3D9C40"/>
<ellipse cx="79.3081" cy="227.272" rx="16.0714" ry="28" transform="rotate(-57.5506 79.3081 227.272)" fill="#3D9C40"/>
<rect x="84.0566" y="228.688" width="81" height="19" rx="9.5" fill="#3D9C40"/>
</g>
<defs>
<clipPath id="clip0_123_72">
<rect width="531" height="242" fill="white"/>
</clipPath>
<clipPath id="clip1_123_72">
<rect width="409" height="157" fill="white" transform="translate(50 85)"/>
</clipPath>
</defs>
</svg>
