<svg width="607" height="529" viewBox="0 0 607 529" fill="none" xmlns="http://www.w3.org/2000/svg">
<path d="M193.223 375.143C169.187 342.773 156.287 303.485 156.458 263.166C156.629 222.848 169.861 183.671 194.171 151.505L198.874 155.059C175.332 186.208 162.518 224.147 162.352 263.191C162.187 302.235 174.679 340.282 197.956 371.629L193.223 375.143Z" fill="black"/>
<path d="M199.67 376.702C199.384 378.052 198.057 378.915 196.706 378.629L174.696 373.961C173.345 373.674 172.482 372.347 172.769 370.997C173.055 369.646 174.382 368.783 175.733 369.07L195.298 373.219L199.447 353.654C199.733 352.303 201.061 351.441 202.411 351.727C203.762 352.014 204.625 353.341 204.338 354.691L199.67 376.702ZM195.129 377.546L192.556 373.588L196.748 370.863L199.321 374.821L195.129 377.546Z" fill="black"/>
<path d="M413.691 153.146C437.727 185.516 450.627 224.804 450.456 265.123C450.285 305.441 437.053 344.618 412.743 376.784L408.04 373.23C431.582 342.081 444.396 304.142 444.562 265.098C444.727 226.054 432.235 188.007 408.958 156.66L413.691 153.146Z" fill="black"/>
<path d="M407.244 151.587C407.53 150.237 408.857 149.374 410.208 149.66L432.218 154.328C433.569 154.615 434.432 155.942 434.145 157.292C433.859 158.643 432.532 159.506 431.181 159.219L411.616 155.07L407.467 174.635C407.181 175.986 405.853 176.848 404.503 176.562C403.152 176.276 402.289 174.948 402.576 173.598L407.244 151.587ZM411.785 150.743L414.358 154.701L410.166 157.426L407.593 153.468L411.785 150.743Z" fill="black"/>
<path d="M231.599 107.768L375.599 108.071C381.122 108.083 385.589 112.569 385.578 118.092L384.991 397.091C384.979 402.614 380.493 407.082 374.97 407.07L230.97 406.767C225.447 406.756 220.979 402.269 220.991 396.746L221.578 117.747C221.59 112.224 226.076 107.756 231.599 107.768Z" fill="white" stroke="black" stroke-width="6"/>
<rect x="278" y="117" width="49" height="12" rx="6" fill="black"/>
<rect x="265" y="395" width="75" height="3" rx="1.5" fill="black"/>
</svg>
