<svg width="1679" height="535" viewBox="0 0 1679 535" fill="none" xmlns="http://www.w3.org/2000/svg">
<rect width="1679" height="475" rx="33" fill="#FFCF0E"/>
<rect x="95" y="47" width="144" height="139" fill="black"/>
<rect x="297" y="47" width="144" height="139" fill="black"/>
<rect x="237" y="388" width="144" height="139" rx="69.5" fill="black"/>
<rect x="1108" y="396" width="144" height="139" rx="69.5" fill="black"/>
<rect x="727" y="47" width="144" height="139" fill="black"/>
<rect x="512" y="47" width="144" height="139" fill="black"/>
<rect x="942" y="47" width="169" height="139" fill="black"/>
<rect x="1372" y="47" width="169" height="139" fill="black"/>
<rect x="1157" y="47" width="169" height="139" fill="black"/>
<path d="M1574 56.95V287.801C1574 290.433 1574 291.749 1574.6 292.857L1574.62 292.9C1575.22 294.002 1576.33 294.718 1578.54 296.15L1578.54 296.15L1623.97 325.604L1658.59 348.041C1665.32 352.409 1668.69 354.593 1671.29 353.219C1671.32 353.202 1671.35 353.185 1671.38 353.167C1673.95 351.737 1673.95 347.722 1673.95 339.692V194.5V56.95C1673.95 52.2846 1673.95 49.9519 1672.51 48.4923C1672.49 48.4737 1672.47 48.4552 1672.46 48.4368C1671 47 1668.66 47 1664 47H1583.95C1579.28 47 1576.95 47 1575.49 48.4368C1575.47 48.4552 1575.46 48.4737 1575.44 48.4923C1574 49.9519 1574 52.2846 1574 56.95Z" fill="black" stroke="white"/>
</svg>
