<svg width="608" height="529" viewBox="0 0 608 529" fill="none" xmlns="http://www.w3.org/2000/svg">
<path d="M193.777 375.509C169.74 343.139 156.841 303.851 157.012 263.532C157.183 223.214 170.415 184.037 194.725 151.871L199.428 155.425C175.885 186.574 163.072 224.513 162.906 263.557C162.741 302.601 175.232 340.648 198.51 371.995L193.777 375.509Z" fill="black"/>
<path d="M200.225 377.068C199.939 378.418 198.612 379.281 197.261 378.995L175.251 374.327C173.9 374.04 173.037 372.713 173.324 371.363C173.61 370.012 174.937 369.149 176.288 369.436L195.853 373.585L200.002 354.02C200.288 352.669 201.615 351.807 202.966 352.093C204.317 352.379 205.18 353.707 204.893 355.057L200.225 377.068ZM195.684 377.912L193.111 373.954L197.303 371.229L199.876 375.186L195.684 377.912Z" fill="black"/>
<path d="M414.244 153.512C438.28 185.882 451.18 225.17 451.009 265.488C450.838 305.807 437.606 344.984 413.296 377.149L408.593 373.595C432.135 342.446 444.949 304.507 445.115 265.463C445.28 226.419 432.788 188.373 409.511 157.026L414.244 153.512Z" fill="black"/>
<path d="M407.796 151.953C408.082 150.602 409.409 149.739 410.76 150.026L432.77 154.694C434.121 154.98 434.984 156.307 434.697 157.658C434.411 159.009 433.084 159.871 431.733 159.585L412.168 155.436L408.019 175.001C407.733 176.351 406.405 177.214 405.055 176.928C403.704 176.641 402.841 175.314 403.128 173.963L407.796 151.953ZM412.337 151.109L414.91 155.066L410.718 157.791L408.145 153.834L412.337 151.109Z" fill="black"/>
<path d="M232.152 108.134L376.152 108.437C381.675 108.448 386.142 112.935 386.131 118.458L385.544 397.457C385.532 402.98 381.045 407.448 375.523 407.436L231.523 407.133C226 407.121 221.532 402.635 221.544 397.112L222.131 118.113C222.143 112.59 226.629 108.122 232.152 108.134Z" fill="white" stroke="black" stroke-width="6"/>
</svg>
